# xmcd
#
# Track frame offsets:
#	150
#	15253
#	32769
#	48336
#	61944
#	75745
#	88984
#	106289
#	120090
#	136063
#	148469
#	166178
#	177995
#
# Disc length: 2561 seconds
#
# Revision: 0
# Processed by: cddbd v1.5.1PL2 Copyright (c) Steve Scherf et al.
# Submitted via: dBpowerAMP V4.0
#
DISCID=a109ff0d
DTITLE=Gabriel Delta and Hurricanes - " roots "
DYEAR=2006
DGENRE=Blues
TTITLE0=The Red Rooster
TTITLE1=I Can't Be Satisfied
TTITLE2=Kansas City
TTITLE3=Hard Times
TTITLE4=Stormy Monday
TTITLE5=Candy Man
TTITLE6=Pride And Joy
TTITLE7=Suny
TTITLE8=Casey Jones
TTITLE9=Hey Hey
TTITLE10=Only With My Soul
TTITLE11=Key To The Highway
TTITLE12=You Got Me Running
EXTD=
EXTT0=
EXTT1=
EXTT2=
EXTT3=
EXTT4=
EXTT5=
EXTT6=
EXTT7=
EXTT8=
EXTT9=
EXTT10=
EXTT11=
EXTT12=
PLAYORDER=
